<?xml version="1.0" encoding="utf-8"?>
<!-- Generator: Adobe Illustrator 24.0.2, SVG Export Plug-In . SVG Version: 6.00 Build 0)  -->
<svg version="1.1" id="Capa_1" xmlns="http://www.w3.org/2000/svg" xmlns:xlink="http://www.w3.org/1999/xlink" x="0px" y="0px"
	 viewBox="0 0 511.8 511.8" style="enable-background:new 0 0 511.8 511.8;" xml:space="preserve">
<style type="text/css">
	.st0{display:none;}
	.st1{display:inline;}
	.st2{opacity:0.5;}
	.st3{fill:#FFFFFF;}
</style>
<g class="st0">
	<g class="st1">
		<path d="M436.9,74.9c-99.8-99.8-262.2-99.8-362,0s-99.8,262.2,0,362c49.9,49.9,115.5,74.8,181,74.8s131.1-24.9,181-74.8
			C536.7,337.1,536.7,174.7,436.9,74.9z M361.5,331.3c8.3,8.3,8.3,21.8,0,30.2c-4.2,4.2-9.6,6.3-15.1,6.3s-10.9-2.1-15.1-6.3
			L255.9,286l-75.4,75.4c-4.2,4.2-9.6,6.3-15.1,6.3s-10.9-2.1-15.1-6.3c-8.3-8.3-8.3-21.8,0-30.2l75.4-75.4l-75.4-75.4
			c-8.3-8.3-8.3-21.8,0-30.2c8.3-8.3,21.8-8.3,30.2,0l75.4,75.4l75.4-75.4c8.3-8.3,21.8-8.3,30.2,0c8.3,8.3,8.3,21.8,0,30.2
			L286,255.9L361.5,331.3z"/>
	</g>
</g>
<circle class="st2" cx="256" cy="255.8" r="256"/>
<path class="st3" d="M364.9,359l-5.7,5.7c-3.1,3.1-8.2,3.1-11.3,0L147.1,163.8c-3.1-3.1-3.1-8.2,0-11.3l5.7-5.7
	c3.1-3.1,8.2-3.1,11.3,0l200.8,200.8C368,350.8,368,355.9,364.9,359z"/>
<path class="st3" d="M359.2,146.9l5.7,5.7c3.1,3.1,3.1,8.2,0,11.3L164.1,364.7c-3.1,3.1-8.2,3.1-11.3,0l-5.7-5.7
	c-3.1-3.1-3.1-8.2,0-11.3l200.8-200.8C351,143.7,356.1,143.7,359.2,146.9z"/>
</svg>
