<?xml version="1.0" encoding="utf-8"?>
<!-- Generator: Adobe Illustrator 24.0.2, SVG Export Plug-In . SVG Version: 6.00 Build 0)  -->
<svg version="1.1" id="Capa_1" xmlns="http://www.w3.org/2000/svg" xmlns:xlink="http://www.w3.org/1999/xlink" x="0px" y="0px"
	 viewBox="0 0 511.8 511.8" style="enable-background:new 0 0 511.8 511.8;" xml:space="preserve">
<style type="text/css">
	.st0{display:none;}
	.st1{display:inline;}
	.st2{fill:#FFFFFF;}
</style>
<g class="st0">
	<g class="st1">
		<path d="M436.9,74.9c-99.8-99.8-262.2-99.8-362,0s-99.8,262.2,0,362c49.9,49.9,115.5,74.8,181,74.8s131.1-24.9,181-74.8
			C536.7,337.1,536.7,174.7,436.9,74.9z M361.5,331.3c8.3,8.3,8.3,21.8,0,30.2c-4.2,4.2-9.6,6.3-15.1,6.3s-10.9-2.1-15.1-6.3
			L255.9,286l-75.4,75.4c-4.2,4.2-9.6,6.3-15.1,6.3s-10.9-2.1-15.1-6.3c-8.3-8.3-8.3-21.8,0-30.2l75.4-75.4l-75.4-75.4
			c-8.3-8.3-8.3-21.8,0-30.2c8.3-8.3,21.8-8.3,30.2,0l75.4,75.4l75.4-75.4c8.3-8.3,21.8-8.3,30.2,0c8.3,8.3,8.3,21.8,0,30.2
			L286,255.9L361.5,331.3z"/>
	</g>
</g>
<path class="st2" d="M500.8,487.8L488,500.6c-7,7-18.4,7-25.4,0L11.2,49.1c-7-7-7-18.4,0-25.4L24,10.9c7-7,18.4-7,25.4,0
	l451.3,451.3C507.7,469.4,507.7,480.9,500.8,487.8z"/>
<path class="st2" d="M488,11.1l12.8,12.8c7,7,7,18.4,0,25.4L49.4,500.6c-7,7-18.4,7-25.4,0l-12.8-12.8c-7-7-7-18.4,0-25.4
	L462.6,11.1C469.5,3.9,481,3.9,488,11.1z"/>
</svg>
