<?xml version="1.0" encoding="utf-8"?>
<!-- Generator: Adobe Illustrator 24.0.2, SVG Export Plug-In . SVG Version: 6.00 Build 0)  -->
<svg version="1.1" id="Layer_1" xmlns:svgjs="http://svgjs.com/svgjs"
	 xmlns="http://www.w3.org/2000/svg" xmlns:xlink="http://www.w3.org/1999/xlink" x="0px" y="0px" viewBox="0 0 512 512"
	 style="enable-background:new 0 0 512 512;" xml:space="preserve">
<style type="text/css">
	.st0{fill:#C9C9C9;}
</style>
<g>
	<g>
		<g>
			<path class="st0" d="M276,398.2l227.8-227.8c5.3-5.3,8.2-12.3,8.2-19.8c0-7.5-2.9-14.5-8.2-19.8L487,114
				c-10.9-10.9-28.7-10.9-39.6,0L256.1,305.3L64.6,113.8c-5.3-5.3-12.3-8.2-19.8-8.2c-7.5,0-14.5,2.9-19.8,8.2L8.2,130.6
				C2.9,135.8,0,142.9,0,150.4s2.9,14.5,8.2,19.8l228.1,228.1c5.3,5.3,12.4,8.2,19.9,8.2C263.6,406.4,270.7,403.5,276,398.2z"/>
		</g>
	</g>
</g>
</svg>
