<svg xmlns="http://www.w3.org/2000/svg" width="40" height="40" viewBox="0 0 40 40">
  <defs>
    <style>
      .cls-1 {
        fill: #2c4552;
        fill-rule: evenodd;
      }
    </style>
  </defs>
  <path id="global" class="cls-1" d="M2745.48,32.814V32.483l-0.65-.191h-0.04V32.6l0.14,0.215h0.55Zm-1.3-1.032V31.431h-0.15v-0.2h-0.67l-0.49.2-0.09.244,0.38,0.107h1.02Zm0.18-.4v0.4l0.35-.085Zm1.03,0.651-0.26-.161-0.15.161,0.21,0.173Zm-1.31.755-0.26.022-0.09.371h0.55l0.24-.244V32.6l-0.39.054Zm0-.3,0.31-.057,0.26-.165V31.919h-0.57v0.563ZM2750,20.011a20,20,0,1,0,20,20A20,20,0,0,0,2750,20.011Zm7.28,12.5,0.8-.176,0.88,0.176,0.1-.486-0.37-.087,0.13-.756,0.88-.138,0.62-.871,0.64-.107,0.57,0.085h0.21l-0.12-.817-0.69.281-0.25-.611-0.41-.057-0.07-.419,0.33-.361,0.01,0a17.529,17.529,0,0,1,1.55,1.555l-0.17.083L2762,30.05l0.37,0a15.747,15.747,0,0,1,1.97,3.04l-0.06.034-0.25.961-0.66-.7-0.02-.663-0.64-.548-0.23-.234h-0.74l0.23,0.657,0.89,0.5,0.16,0.163-0.2.1,0.01,0.522-0.43.18-0.37-.082-0.23-.327,0.6,0.032,0.16-.218-1.33-.9-0.1-.381-0.54.488-0.55-.111-0.84,1.084-0.16.426-0.53.048-0.79,0-0.48-.22-0.13-.939Zm-4.08,12.421-0.73.926-0.21,2.054-0.66.52-0.98-.029-0.33.567,0.25,1.064-1.07,1.361-0.34.625-1.01.486-0.67.1-0.02.281,0.46,0.133-0.05.3-0.42.405,0.25,0.319,0.51,0.014-0.03.391-0.14.381-0.04.312,0.75,0.629-0.1.327-1.02-.02-1.01-.881-0.78-1.383,0.11-1.335-0.6-.794,0.24-1.348-0.35-.1V47.33s-0.99-.75-1.05-0.75-0.53-.129-0.53-0.129l-0.09-.551-1.3-1.616,0.13-.581,0.04-.95,0.9-.623-0.13-1.064-1.3-.1-1.02-1.163-0.73-.2-0.47-.085,0.06-.425-0.59-.085v0.24l-1.49-.367-0.6-.916,0.24-.445-0.94-1.375-0.16-1.006h-0.38l0.12,0.978,0.66,1.006-0.07.4-0.56-.085-0.68-1.159V34.932l-0.49-.235a16.192,16.192,0,0,1,5.46-7.306v0.322h0.84l0.17-.234V27.212h-0.61l-0.03.127h-0.31c0.34-.249.69-0.483,1.04-0.706l0.14,0.077,0.72,0.154,0.06,0.284,1.15,0.043-0.16-.369-1.02-.027,0.24-.222-0.08-.27h-0.5a16.027,16.027,0,0,1,1.48-.752h0.06l0.46,0.625,0.75,0.042,0.45-.44,0.34,0.171-0.62.611-0.82.014a3.021,3.021,0,0,1,.07.6l1.05-.03,0.11-.283,0.72-.041,0.09-.425-0.43-.073,0.14-.381,0.33-.1,1.13,0.058-0.62.566,0.1,0.44,0.65,0.1-0.04-.794,0.62-.326,1.11-.129,1.6,0.71v0.61l0.51,0.127-0.26.482h-0.72l-0.21.552-1.65-.389,1.29-.693-0.49-.421-1.12.143-0.1.1h0l-0.02.024-0.32.335-0.54.044,0.05,0.266,0.19,0.077-0.01.089-0.44.062-0.03.252-0.41.022-0.08-.5-0.74.226-1.52.889,0.17,0.627,0.42,0.276,0.85,0.12v0.964l0.4-.062,0.36-.756,0.9-.288V28.48l0.51-.381,1.21,0.286-0.09.765h0.33l0.9-.438,0.04,1.006,0.65,0.395-0.03.6-0.62.212,0.04,0.2,0.75,0.341-0.01.411-0.22.018v-0.01l-0.95-.293-0.04-.3h0l0.28-.191V30.816l-0.3-.075-0.08.256-0.52.081-0.05-.018v0.026l-0.18.026-0.15-.3-0.17-.075h-0.37l-0.17.137v0.305l0.32,0.107,0.31,0.044-0.07.032-0.29.318-0.12-.159-0.28-.073-0.75.71,0.09,0.081-1.11.619-1.05,1.091-0.07.486-1.05.691-0.52.524,0.05,1.05-0.72-.338,0.01-.613-2.02,0-1.04.526-0.45.836-0.18.661,0.29,0.641,0.82,0.1,1.31-.871,0.11,0.433-0.39.752L2742.05,39l0.1,1.534,1.36,0.23,0.86-1,1.05,0.215,0.37,0.512,1-.06,0.03-.3,0.56,0.269,0.62,0.979,1.08,0.016,0.39,0.693,0.06,0.851,1.19,0.453,1.5,0.016,0.44,0.72,0.67,0.212Zm9.69,4.931-0.62-.833V47.672l-0.49-.494-0.05-.567,0.63-1.2-1.19-2.113,0.14-1.433-1.08-.113-0.39-.4h-0.73l-0.37.341h-1.27l-0.04.113h-0.71l-1.63-1.855,0.01-1.447,0.27-.1,0.1-.554h-0.38l-0.16-.581,1.89-1.359V34.946l0.92-.512,0.37,0.037h0.76l0.6-.32,1.91-.149v0.978l1.51,0.383,0.3,0.213h0.27V35.045l0.88-.085,0.82,0.617h0.18a16.326,16.326,0,0,1,.7,4.719A16.042,16.042,0,0,1,2762.89,49.868Zm-21.65-21.36a1.556,1.556,0,0,0,0-.373c-0.04,0-.41.064-0.41,0.064l-0.59.171,0.16,0.19Zm2.49,3.411h-0.56l-0.39.426-0.07.425,0.3,0.159Zm-1.21-1.337,0.14-.542-0.4-.1-0.45.212,0.28,0.565Z" transform="translate(-2730 -20)"/>
</svg>
