<svg xmlns="http://www.w3.org/2000/svg" width="40" height="40" viewBox="0 0 40 40">
  <defs>
    <style>
      .cls-1 {
        fill: #fff;
        fill-rule: evenodd;
      }
    </style>
  </defs>
  <path id="my_apps" data-name="my apps" class="cls-1" d="M2666.78,19.994H2651.3a1.293,1.293,0,0,0-1.29,1.291V36.773a1.293,1.293,0,0,0,1.29,1.291h15.48a1.293,1.293,0,0,0,1.29-1.291V21.285A1.293,1.293,0,0,0,2666.78,19.994Zm21.92,0h-15.48a1.293,1.293,0,0,0-1.29,1.291V36.773a1.293,1.293,0,0,0,1.29,1.291h15.48a1.293,1.293,0,0,0,1.29-1.291V21.285A1.293,1.293,0,0,0,2688.7,19.994Zm-21.92,21.941H2651.3a1.293,1.293,0,0,0-1.29,1.291V58.713A1.293,1.293,0,0,0,2651.3,60h15.48a1.293,1.293,0,0,0,1.29-1.291V43.226A1.293,1.293,0,0,0,2666.78,41.935Zm21.92,0h-15.48a1.293,1.293,0,0,0-1.29,1.291V58.713A1.293,1.293,0,0,0,2673.22,60h15.48a1.293,1.293,0,0,0,1.29-1.291V43.226A1.293,1.293,0,0,0,2688.7,41.935Z" transform="translate(-2650 -20)"/>
</svg>
