<?xml version="1.0"?>
<svg xmlns="http://www.w3.org/2000/svg" xmlns:xlink="http://www.w3.org/1999/xlink" xmlns:svgjs="http://svgjs.com/svgjs" version="1.1" width="512" height="512" x="0" y="0" viewBox="0 0 24 24" style="enable-background:new 0 0 512 512" xml:space="preserve" class=""><g><path xmlns="http://www.w3.org/2000/svg" d="m23.25 9.5c-.44 0-.88-.14-1.25-.39v7.89h-20v-11h8.5v-2h-8.75c-.96 0-1.75.79-1.75 1.75v13.5c0 .96.79 1.75 1.75 1.75h20.5c.96 0 1.75-.79 1.75-1.75v-9.88c-.24.09-.49.13-.75.13z" fill="#c9c9c9" data-original="#000000" style="" class=""/><path xmlns="http://www.w3.org/2000/svg" d="m15.854 23.146c-1.313-1.313-1.353-2.586-1.354-2.649-.002-.275-.225-.497-.5-.497h-4.02c-.276 0-.5.227-.5.503 0 .054-.018 1.328-1.333 2.644-.143.143-.186.358-.108.545.076.186.259.308.461.308h7c.202 0 .385-.122.462-.309s.034-.401-.108-.545z" fill="#c9c9c9" data-original="#000000" style="" class=""/><circle xmlns="http://www.w3.org/2000/svg" cx="10" cy="11" r="2" fill="#c9c9c9" data-original="#000000" style="" class=""/><path xmlns="http://www.w3.org/2000/svg" d="m14 16.75v.25h-8v-.25c0-1.52 1.23-2.75 2.75-2.75h2.5c1.52 0 2.75 1.23 2.75 2.75z" fill="#c9c9c9" data-original="#000000" style="" class=""/><path xmlns="http://www.w3.org/2000/svg" d="m23.25 8c-.159 0-.318-.051-.45-.15l-1.816-1.362c-.116.853-.85 1.512-1.734 1.512h-5.5c-.965 0-1.75-.785-1.75-1.75v-4.75c0-.692.458-1.5 1.75-1.5h5.5c.932 0 1.696.732 1.747 1.651l1.773-1.477c.222-.187.534-.227.798-.103s.432.388.432.679v6.5c0 .284-.161.544-.415.671-.106.053-.221.079-.335.079z" fill="#c9c9c9" data-original="#000000" style="" class=""/></g></svg>
